<mxfile host="65bd71144e">
    <diagram id="Q-ycZ2HmadHi3AcAbMAx" name="Page-1">
        <mxGraphModel dx="440" dy="319" grid="1" gridSize="10" guides="1" tooltips="1" connect="1" arrows="1" fold="1" page="1" pageScale="1" pageWidth="850" pageHeight="1100" math="0" shadow="0">
            <root>
                <mxCell id="0"/>
                <mxCell id="1" parent="0"/>
                <mxCell id="2" value="" style="shape=stencil(rVbZbtswEPwavS5ILo/lc5r+R4A4tRDXDhw3x993VYGql5YmKNA3Wdrxzh4z5MB3r/uHl90Q3OvlfHrevY+Pl/3A34YQxuN+dx4v+jTw/cB3T6fz7sf59Ov4OP9+eZgip6efp7fpHz5mnFANEyi4z/mFI+f+vPg+hx/G41V4KFSdiY/kw3Z8jFTZxGeKaTs+BwrexFfyeTu+emLLx3tYQF34LgCmVAEgU7YVaItSAQBpnxuAPQVEqVKxlLRrLBBQxQCSUGEIYNvVEjCgUKkGIMsg1wGpL1ob7cCgayCxNShJHwFAFzP0gAwySKGQLUBJggxTiTbD9BcIwBTsapREGahBArGllH1rwxYg2sHFQhFsq1Ji21bmVtU6IDV9LesdcA2FkgX4SAVJ1BHHXqIeCYibXBaAugKgpHOVZAHL/m5J1NkM6muMMlSKtgauJEDT3rk+RcKDmLbZpsiCbUP6UYvHXpmJO416ikjUTNKZsdo/1mi1Ga768J8Qqph84zQMSKmZRu7LTkB00y50jRUSJLqb+EIeHXK9G0uCJ0pcGTQyMhWwNW+1JUbLSmzlk0szttV414shqdwA/xspqIklwEfjrcNwpgr6725O6EwC+OgGdQ5W2gm8Gs/kbD+9MoTz6uwoNuFtrINY+g6K7B9vbF+G68Pfy+HTeDjMd8vr7/1lUl/NF1G+/w0=);lineShape=1;" vertex="1" parent="1">
                    <mxGeometry x="80.89419554813946" y="217.000277467086" width="21.87073358600003" height="4.357907162561332" as="geometry"/>
                </mxCell>
                <mxCell id="3" value="" style="shape=stencil(lZbLbttADEW/RltiHuQ81mn6HwHi1EJdO3Cctvn7UBVG9lDWDbqTZR5xOCQvOcSHt/3T624I7u1yPv3c/RmfL/shfhtCGI/73Xm86NMQH4f48HI6736cT+/H5/n369NkOT39Ov2evvB35kqk7CcquI/5TSVJ/158n+0P4/HGPjuqobMPTLlsAymRyx0QI1XZBqRQcR0gnooHAFsgZcogBknE0gE5k0QQNFMoHVA8idsG9Fal91ACMQCqJ+7TUJh8BkAmZzwkSgEAlYoBKoxBARNDDSQgDzWRN4BQZAA4crEHMiVQS3rrpS8+PWSoIHGBYp8479QpiDoFys66yCAIibb6aiEBAGueDJBIQOZYo049oD5B1Oxsy+lNV1Df6oH7RJRMFcUgrecXQCigpg6Uag9E8uBIad0QWAWyJ8cWYAAUR5ItUMG1ar84b2NgAGj5c7K3hGppqmYDFNhyN9W8pNrDYpo6zOg9E6MzhdbDN+VagTKpcGUDqKIDD1lWDaFaBTwkaeV/A6ByVaCuPCDABwrRXqsHwCoNuVAE/eCtVOqYDECWdKD1EXNtOrUVgBE+FYUIatXnphDLmPawQXXsS5/mgGdiZIp95elmAKZ0TKsQ2hS+b1/b0F8O1Fab+xrGttkWFbxvX9t8bfYOdppI2ymu9g4rXlrZo0mlO0s19gzOk6MVSE8BdFleZvH1PuHOo5/rv8/N4eaOZPa8Nkm3dMUI0RfLwn9utl/b68N1jX4ZD4d5C7/9367d+mpe2ePjJw==);lineShape=1;" vertex="1" parent="1">
                    <mxGeometry x="89.99545455390148" y="206.7587585239486" width="8.495167255779734" height="27.398335894843058" as="geometry"/>
                </mxCell>
                <mxCell id="4" value="" style="shape=stencil(lZfdbtswDIWfxreEJOqHuu669yjQdAmWJUWa7uftR89QGjLxwXrnxP4s8fCQoid+eNs+vW6mFN7Op+P3za/d83k78Zcppd1huzntzno18ePEDy/H0+bb6fh+eF5+vz7NT85XP44/5zf8XrhaKMpMpfBn+SdW6uHfP18XYL87XAEtUI8GSJGY14EaKDYLdJK2DuRGuRggFwpghZwodgMUptrXAa6UsgGqUBcACIldoXWoUhEK0QMFrNCYQrJAJckA6BSaB0JZB6RQ6h7gtA70eBNDowq21Mu4fRW0VADISNMAJFFDgL7PWkPq0G0NCMECnRgkrqs1bNA9UQJuVZWajaFnqhHkQVewW9I1A7CGBG8NBQoIWr3U3QqFBKyg7s83MSSQ6ZpHyV8AlQGoVKMvIBFqIAYF2AGFMpC1Jt+X5NIW7gOaB9v51K0Zdb5I0ZpP6wF1Pr3tC6jCLQn7vjQDyEvde2leE6ww57X4oAOq6TZ69UVWzTQC+k1N55GZNaC4EhVKQFbdEluV1HyMtsSUXQFphQDz6QZi9QXUgDU+DegZV20BxRBGq7pLpJsK0i6AdM2+kc2NB5Ro8J1S20gEIqmENoKi5zZIm56IVqIs0KqRvUR8ecV9hYJvGbpmATvSMaDZLcU08nj/VG/DNgPAORN9vrnnGaTsygMfthjz2VrxNCuS+gSFoE4ttng4UMNnQ7Uxc6EO8par73q6QgZGysEfJqlAmeZpzKqkZkRH7mwc8SqhOUOBZIOOeGbl7kfQiM2qQXfnvYpV4nH8XYAC5z3NgwcybPW5jyP8AjCsaJ2yOXogAS8VHWlvgILGhuATpzEga8xTQPIqZTTJfPb75z8Avfj43HrZ7ffL19r1ff95pn8tn3b8+Bc=);lineShape=1;" vertex="1" parent="1">
                    <mxGeometry x="109.47235420744448" y="216.95606043355713" width="14.706874178484213" height="27.632413335583692" as="geometry"/>
                </mxCell>
                <mxCell id="5" value="" style="shape=stencil(7VjLbhsxDPwaXwmJ1POcpv8RIE5jNI0Dx339fbk15Cy5uxP0WCA3PzQrkRwOZ7WTm9fHu5f9jsPr+XT8uv95uD8/7uTTjvnw/Lg/Hc76aSe3O7l5OJ72X07H78/3l+8vd9PK6dO344/pCb8uuBioxQnF4fflF+4k9e8vny+Ap8PzHBCpFgNIhboAQKZid5BAGQA4UOz2SIFCBoBMXA1AoxIAkEjc7A4wZtGUJLNeDxS212tGxD6/Uujb63Ogyj7iXgBAKNgDSaHUACBRsinKTCUBQPYhlEo5AkChHAygCWVQhFwpigXk8YhNgI2hNcoohkLNZqlHygwB0XK7J2JUh+yP1DUNqNJC3Va6NxIEYJ/W3nFalTm+Gd5ha6eU/BYVlDpV6s0HAQGFiu3oXmFHpzzIOStEA5VL+rc7Eo9abgFcQ7ROjHYoVG0MVfmIyMRexrQJyzvss0dKPMR5FVCCT6sKWwMqUDL1bHVGdwDsq+x7NGrhQAxNQ2wekIC09kBsd2AZ7FoHVN+jWko0f5TMruVKpwb6YQmoaVRmC8B2wlVtarRDpebIp1MVBV283muiEVu7JtEeqV0FfR2gBwgeEIG4arsUy6VJ7wFbWx0j7QoIgyzrAJVvS42KnYYCxO6g/C1ABBRQbNBFC4foXYdzuQISdBqapWCPVOKQha06BFu43CmCHbTSXmYaJQTIw+vMd0D0riMnsxgg+Zqfu5qlhDuu1kUdkAl9G2mzUqMRNE1N19QF60zzBqhdXdpWjzo1nhoCdJCOtLIwQLDUTGkBgE0dhgzNZQMUQg2Vn4qqC0gF6hCJmfQhx6Qt58zGJK5INlYBqEeFxHZQutr39SGnI81WOgU8FVW33KBuMIYiQ4ZmZpqRmf7wxh/e+D/yxtcWnrEvAGFK4smkPZWB4KsTZus2csUxaAtbgO6JtFLUp7pbBz0kAEz3JM5952FYNq8pLL+1lAKowXEx2vOYAOtjUUeaG7wZ0rt6qdQyoBDiUN65tIIOXUzp6QUFlDl486NJZrhe3MtDGbdTG+tdfjjBt5O4uBxjfHVF3carTwiI1l7mp7svpKneAER9lQHrNRvL5wNOLyz6VHHkqiiIz09BRm+RnwQFOwav8BpSw4B/vM58H6Af3m5PHw5PT5fL1/n//rZVf7rc1MrtHw==);lineShape=1;" vertex="1" parent="1">
                    <mxGeometry x="136.20123038250858" y="216.65416960103585" width="39.60884726890538" height="20.034585191087103" as="geometry"/>
                </mxCell>
                <mxCell id="6" value="" style="shape=stencil(7VjLThwxEPyavbZst59nQv4DiSWsQli0kNffpyYrT9btoSKkHDhE4jDMusZud1d12Tu9er6/edrvgnt+OR0/778fbl/ud/phF8Lh8X5/OrzgaafXO726O572n07Hr4+35/+fbpaRy9OX47flCz/OuBgFkOXP/Ty/KRLK7xcfz+MfDo+X473UOIwPUXwiACcxDQBNktzrAK0S6wCIRRxZkmZRPwBSlewJACsuAyA3yY0AgoQ8blLjMThJ45JqoTOEKm5MQ0sSyAxIk4mhZUmBAFLfkxVQpLAZVKKOgMpjcFLGXWqtf2IT4LGAZAG1EkCU1AaAd04cCcJ7iXGaggBqz+vF+ECWlKRFu0mRFas0Z7MQWdpsISHNrC4merYolazHT+vXPuPm+HW718L2EliObRGVIMqoJmXMcA79zeZ40GCsuRQkZl4QYwAxiCMBe6jLCIAaFFIRCLmMIUMhKaDYmEGMRgCQVEPl2ndhu0aj5JFn0LNI9nRNUR/PSdawp+P42Kt8e3ztO74GHMQz3rup7LCkSrKGKZrpOvgEibmFTsM1Bu3U2BaK1pe8AnLX8G0AxGtcEvpaImlDjzE9IVZRsk1FbU8AIJJEZDQlZ5eUCZtBxuZt0J4AEvqk2aVIm3lC6Y+EhuPIrLirNTDaKBuyEx0lDwaiksRlrHgsb+X1DTfhxqBVe+PaTtwqEBcAR7a1Ops4AFibqlOfQgzKCOS6rF/sEtNJ9A1TrTBygQHiVN6IisSAGfxEUZZpxGCaT0yUQDXbWgIfPOO0k2ZmgBSzTCfx3gIiAaCWjBZjSY0QCNVqyhsUZT4vT14VFGUWCYzTqYWyGBZOm1pq0higWdemkEqmGm8FZBUdM704P1KtOVrjhj5PxTjYDuSV8iGvDWoFVGqVUDmGooiBiUAMk8wkaj7BYGcailI3CVEx9jlp34ZtgO/Su/o9pd4nNGuWClc+uKv5KMbk/h8dxUim3+lRbAL8P4q966NYtvRH+4rM4loPXSq9MUDCjHfLVSo7W63isLIfVCPs91PK0KuY5PnpqLRYMVamrWvuqpHKY2jWAmR6DMD4bGLuL15jZjWOoV93bY8PViuUJnk5epmmQO/CIF7Z3OeJY4LtJt7Twy18qXGqnqqvZsuyQD3eYvZtvExUcJpQ40Wo6UTPtOeRrpTb49WWdOJn+bfev/51PB7+XPbeHR4eznfFl7/by2G8Ol8s6/Uv);lineShape=1;" vertex="1" parent="1">
                    <mxGeometry x="186.28188202315425" y="219.6997325652709" width="15.252570869892793" height="35.64433388183954" as="geometry"/>
                </mxCell>
                <mxCell id="7" value="" style="shape=stencil(lVZJbuNADHyNrgSb7PWcZP4RIM5YiGMHjmf7/VAjyKOm4gpy08Lq5lJFctC79/3j224Qfr+cTy+7X+PTZT/o/SAyHve783ixp0EfBr17Pp1338+nH8en+f3tcbKcnl5PP6cTfs+41kh1Qgn/mb8USuXfh2+z/WE8ruxrpJg7e1EIKJmkv0Aj5XYbkMvyewFEO0JuA1KjyB0gFarApVhJ+hhKoMa3AVop9S7VRDkCgJDWDtAMgG5gktIDylKYDwGSqYQeUKmALIkQO5ca5XQbEDLV1AECMzEIIgRKmysKSJPdID4GWAfi7JOEuMebHCWqFdlzT6QWiUFOA7E7XygAf3QhzdWeKYEil4UzV9o1EuB/EIqOp8ZcUIBgQmEPUCBOY1HLHlABiyyGqD6GmqESiitygEowrTlxNqWAWCSLUFZlbiCtGij0SmimPgCQSuwKbWkNAKAbpl6b2seFq5TFAxpSsy4OrAHgBnN4c4EAKkUK1YfMoM5hc36mCLXsUxph+2IvBdNmged/zd5miFOO4nitn/cdPluzQ1IzQC+EZDQF3UhtTLrBqbAdxeT7kTEdjbWUKPQAS1sCJLJZ7qocSYAOppT09tZvgL3NbXUzChatRF9lhgOhVArq7FEDrpshiydmzUunWtkj0jXffhmKxjqh677WygDnTIPq8x9AvKbx2Odf4fiY9oE+3ggXhNXGcVUNBaCyr66zn9vbw//d+Xk8HObVe/3f79r2ad7T9eEv);lineShape=1;" vertex="1" parent="1">
                    <mxGeometry x="214.90095399742358" y="207.10166266940575" width="10.797259058090617" height="30.520208825069858" as="geometry"/>
                </mxCell>
                <mxCell id="8" value="" style="shape=stencil(7VjLbhsxDPwaXwlJ1IM6p+1/BIjTGE3jIElff9/ZuruOuN5BeiyQmx87K5GcIUfa6dXz3fXjfpfC88vT8cv+x+Hm5W6nH3YpHR7u9k+HF3za6cedXt0en/afn47fHm5O3x+vpyenT1+P36c3/DzhWpDaJ1QKv06/xC49/vnl0wlwf3h4BShZWh0AqUvs2wDtUtoAyCo5bANSExtXKF1SJoAoaQQ0lcS2pD6GGqXYNiC3OSdLDFUSAZTmV9AgpWwDapJsvg6hEYCKucJVUZKlWsTSCMgSSAzVJI4xRGxStwHgUhsrHeMc1WUAiNA9gKW1VYnmAX/JchlgUt2WdI7qIsDCKktFIgnakpSRGrFJZQCd/14EBGqQwlmeN7AA8AqSJazQx6BTpVkCIBav6U4kiqDV6QFtgdDbosQwKi7Mtd8ClBEAshTSl1qf2b+sYLMGt2Jw1KjQNAu6ShnrAEmFtA3owVMDACbRnudOugAaJV9vHgANshh6n/9eAFkSiSGGIMEhkFfCPizhojbe7xFEG0VtUBADFL8lZLqzNKENjfzuKoHRtXn2AdCYRnWeHwsgSSd5RZ8J5mNgom5NdJWlRGJoxY8gbDKQtALgVkCllTVXDJyVRo0NCJPsBNHFyJCz6KciNMrciRVJK8mxLNlKEJOoyZYm5iS/JWV6qLMXeRU0I1/HzHJ2JolxUZsrHKjB9ND9kEOijXRjbMkNauP+B0GHsVci0Z21vn8FTEQYAdikksIVxNB80JnUAR7OaRrdODNrbH4E5U5nFmagc1hwpoXU4d0lvrvE/8clwpLZqAdt3MPBE45pxWkzMraqqOutWTKJoZQLtrISxeVlyC5dI9HDKM551XmNQrvGmWoLNc6e6yJi5cjQjCtZIazGw/LL5TKIjVwtSuuMBdJYNi3U/CRbMalJIGXT6i1i5FcCOJ57RUeqN3TW6AQ6Xypcfj77EIIoez/abnLPsxrX1cQNvOct3eG8/0gGAyyFuhJQzz05O3fio+c3HCtsfH+lBnoyn2O8fXZyW887K4kCs+MeNuSucDDYqH/WFQAHQMJqpNQZjIgispgXx//Gu7c3XNbhw/mq7/Zwf3+6KXz9v78axE+na0X9+Bs=);lineShape=1;" vertex="1" parent="1">
                    <mxGeometry x="223.61484956923312" y="225.06986217258077" width="23.853438702092376" height="20.433745492288722" as="geometry"/>
                </mxCell>
                <mxCell id="9" value="" style="shape=stencil(rVbZbhsxDPyafSVEUQf3OU3/I0CcelHXDhz3+vtyu5BrruxJDPRNXs9IPGYoDfLwtn163QwxvJ2Oh6+bn9PzaTvIpyHGab/dHKeTrQZ5HOTh5XDcfDkevu+fl9+vTzNyXn07/Jh3+LXwOJCmmRXD7+WLUMh/P3xe8Ltpf4GXRJEdPlME+MIUxeGZyngbr0oyOnygEG7jx0gcHD5SiQCfKa3iCRTRAUrBJ2wZjAkQRso+AylU5DaBwznFc00jVYZHsD+iKGVEqK1JjaCRpAJCIlFHsEIrytp05EOywinIWiuxb4RlhZJWaSmeCbkFeZ0Q1lLSQgJaXZU4OkIVSiCkWmj0hGxqASH1hGRiuiukWCiDxlnSyWuJBRuuK2uCBpr75geG+Qfs3wuDid9RnsfbgeUeaXOlgv25Mo8wZdCDK/5MlQT7czUCirSsPjhkrPEBVcnGmNeFjqQopG5OWuFQSP0gvqjDf2L0l4MVAhW2v31MLhVcP/31NpoFAUG7iHLr5VV8plo83sQEJoCZ0bdBMzFKgNSr20ZIAcII7ao5K8/wYP/+6slUgN16K5hfgdu6eMSccE++VjEB46irJ6e2w61+VV//ZqSPySHBC+He19T7eFv8e7q9TLvd8vK7/H/91LNPyzNRHv8A);lineShape=1;" vertex="1" parent="1">
                    <mxGeometry x="247.46321860586306" y="225.65371846160804" width="18.358357472718808" height="4.268933316041739" as="geometry"/>
                </mxCell>
                <mxCell id="10" value="" style="shape=stencil(lVfLbhsxDPyavRIU9aB0TtP/CBCnNurGgeP08ffl1pC9otdT5LZec0RyyKG4U3x43z69bSbh99Px8H3za/d82k7xyySye91ujruTPU3xcYoPL4fj5tvx8PH6fP799jRbzk8/Dj/nE36fcalQ1hkl/Of8plKr/158Pdvvd69LeyYtg30oVMp9QCwU2wCQTKkBQKQcB0DMVBQAxHuwpJJAQBo9ZCUNEKBpABSlijwkqjwAVCklQGslrmMZhDLwUITKmLRGyFJJlMZCK1MFlS4WUhiTrpT5PkCFmmOpdBrWAfWG1tyPWAVUozV4DwwK17iTuCgcA1pbJsk+6ZoBoPpu1UARhBSYiV1vJArIRaM8Zm3NxEByTSk4QOtMrwNiP+/SfYEaoKmaXly7RoogJDvPVc4ADdCkmbR5ABKEdXMcK2cKEqQgax0HYAoghxK9B6tDBrSaRn1vJCqg0uUi4UUzKdJo6edd2rWRRMBSoDB6MEEI8KCF1HkoFFBriB99Jmo0Z6pNAfYeMrggrFurE3WFhTM9FFcHhtPYFKejBxuuAeRggOqmsbEERt+nASagMrI004DmffStYaMKKS4lamNIi1G1ipDWSVm4QIIIyY+NlvDy4EdlzXC4cr+gFqwyIOlmFJsaFLQe971isTigVg3d+2UzyVDPsWd3WX3wpW5byHiBihCjeFIP91LjAG9cy9itGQkWwPzLKDXpjb5un/wqFrrDdXv188v2UbQbcp9uV3sBLT0vn94eScC2W6dju0NA/LY+u6WK+3xdt5ebdRsKZhZx9fyj80sX7LW+AvhM6u/ADBfh2X6MX3vB78bzqc+R/9rbw/Xb52W3358/nZb/+28le3X+zoqPfwE=);lineShape=1;" vertex="1" parent="1">
                    <mxGeometry x="254.04562984428333" y="213.89975769670684" width="16.077340656202296" height="33.413629997756516" as="geometry"/>
                </mxCell>
                <mxCell id="11" value="" style="shape=stencil(lVfZbttADPwavRJ7cZf7nKb/ESBObdS1A8fp8felKqxr0tYEeZNlzfIaDrlTfnjbPr1uphTezqfj982v3fN5O+UvU0q7w3Zz2p31acqPU354OZ42307H98Pz8vv1af5yfvpx/Dmf8HvBpUi9z6gU/ixvSqZc/r35ugD2u8M1gEmaAeREkgCgUYoGoDZLWwfkTrFaC4U4A4BQti4VIQ7rgBIoW5dqJKkAUKkFA2iJKsgSC1X2AInrAHUg2aCrwLRWplYsgIlBWluk6oLOVECWmlCyMdREDIKWQl28hQBc6pGCJV/VI0AdOlN3QbfB3/uATsEGrWkQEEMMgYIrdaUI2NeFmg1ClF7IJ61TsoBCUQAgENsgpFEEldPzHL9FIL9bI7bskz6Kfx8QRp2uLCCAktOpgDAsdVULtg6SBoHXWo5d4WREtQZIlkytjDdrLkWrM5qGACqtbA4WUCvsoNqH0F11UAfUUG46tmqPVtBymsQmHtBQU3cftEYVEb2Lr4MGLUgFxFND01pwU3fbQFq4ihqoU7FpbX3kbRVQPgPQJAYLuBKStSlXrGxoHhgEoVPTcaOnIW73uXHD1g51SefDjRg30D83QqlTNwJ/VHjt+TlQAsIqQ+MuKS0k4PtbhxLs/8LeAK6Y6oW4Guv8QpoXvAH1SACAq9eL3EiQS5dN6qoGCYlkGLNsABgPKz3PDVBOlNFuxaOoF0CGE7dEP0q4DOlfXfcskZhHu94HKI/TDQBkKUffOurSBzuu20s06AYs6Badkk9rRGt3vnEpQBmeF3tbuIJXpVlfHICpgv75/NXhY4A+/L+pvOz2++Wic/2/v9noq+VWlB//Ag==);lineShape=1;" vertex="1" parent="1">
                    <mxGeometry x="274.2633049807365" y="225.98865941905217" width="14.129663833080372" height="22.135599755125554" as="geometry"/>
                </mxCell>
                <mxCell id="12" value="" style="shape=stencil(lVdJchsxDHyNriiS4Iaz4/zDVZYjVRTLJSvb74PJFCcCRtNJbiMKzaXRaJA7fng/PL3tdym8Xy/nz/vvx+frYccfdikdXw/7y/GqXzt+3PHDy/my/3Q5f319nn+/PU2R09eX87dphh8zTgpJmFAp/JxHoo6k3yMfZ8Dp+HoD6JViNoAUqOdtQGPq0QKEuG4DaqReDYCFEm8DClOygNwpd7BCImkGUBJlcOgW/KGLriAAUKiIAdRGBbHUxo4HoHWq4AwtUrW0SiQpgCWhaFeQPni7C8hMbAExBAphG8GZarFLCExEyiTR76kAXisFmwfJ1EDimKpNtDBlQFKkVjypCewn+Kx1rIuFvyW+EIP9B2K7n54oglKIVOz8TUsHnFdTzDa+koCEFaqW/0noYH5VWPDxEZw3BmrsAQ0deFXKWkmI0agaFU8RkpD6YYs+B6gyJwN1gEIdiEIByW6pC4UIAOxNW2UKz6CW6mqfqQE70rK1jqp1hky+rubXygZpy8Nub/aDdJdGTpf4RAHWWU+eUWREWpdWRdrmMnC6VT/oPNx1oy6db3WdAXivKszyr6quoM40O6uyQV1ca2RVxxHML17SGo8apniBTvFA0WmxkZv2hxLAxWdgAjTAkAzjvAEgK9J+WVwO8hi5D1BJ2iKoHSY557GBBZBgt+HuAXoqxJK28GTzprwlUMclU7AsqbRgQw6D9eWSIOPacB+g0rNbUkdmYBXKenQ9eYjxfsuJPtEFW93KKwJVwKk6D1cXH0CWJ2dbxaP5tRTYxcNSq74D4iuLrHpyogIKR69wjv8MrU7jmz1vHZraaPnrSxHsfrqAex/EvzAq/pYz9UNMkWt/2nEhRypq94rS/odE97/Prn8A6MefV97L8XSaH4m3//tXoQ7NL0p+/AU=);lineShape=1;" vertex="1" parent="1">
                    <mxGeometry x="287.1227732017808" y="230.05980269645988" width="32.844422940194704" height="26.312505216228374" as="geometry"/>
                </mxCell>
                <mxCell id="13" value="" style="shape=stencil(lVjbUhsxDP2avGosy9dnSv+DGULJlBIG6O3vKzc4rOX40L5tsjprSUdX7+Tq5f7mab/z7uX1+fh1//Nw+3q/k0877w+P9/vnw6s+7eR6J1d3x+f9l+fj98fb0++nmybZnr4df7Qv/DrhRMhJQ3n3++0fCu7vH59P8g+Hx428D1TrIM+eqgcARzwewJViWgM4UhxP8Jk4AACTxNGESLmsAZlKGeSDGpXX8pH8qFAUqnEtf37b5ZMnDwwI5HiUrxSASyOF8fs5Uqpr+UJutLc4KkB/dWhJIyB0Ti4DEsloQcnkAceeLQWlEgMKfCUXBkBlcsBHkkn8CPAw7EKiak4QKgJYyOTyCAiUQNilcxifARHGRZ7cqoAEklNpytMJBaikThSxgAqMbgoUC4gglpTXMKkUANNFT2DrVkZGcw/+LdMo/YMN76o1CtiQHcXRS3qmB17KqlK2AAbBl30vWBtAQCeIZbp4mA9qdJgABfDQvDQmUBEYSw1gvBRgmWwqGaM1+JCX1OiR6ZK6kiu3lrFSal2CbmXKEyAjgOsJuQHAIlCnWNJKBcI7FUrRGv2WISuAKZXq1oxOyJNbtZABHhRQjdEC65KqJCYfPCVAnHqJjdHaMVCpdD2/NgDBTJum3lIUneB7T96eAIzWaLUZx93Rq3zwU4qilqWALJaHiIwOPeX/sbErIE2xlJCXdJaZohXaIMSGBzw6KA88JVBChewiAJyg01Hy1ugAMk6dKMkajbpo0RQ1RheKwK3ap6tpihrwIIFqoWzGH4H5wM6RG5Nav4GmyjZajMG0+cbKCm+sqLBDtDrkLCChlpJs3VAAoi6lybEVThsxUebJTYAJnStNcNTc54/Lk2uybbEmWL/bPjONWKgy6UrmjEpaN4CXWF+baMLTt9Z709lzL4aLDYjN/uBhPnAn9bwBpb4TXZR3tiW2DQtwMOVCYpgL3Hfm84aoSzGYAoIlIEjP18XGaiqSaK8ADOsGZ5aZtsSipTvZTOPc43a1wcXxBHZwadUNzmytuoSCmFN5M046SLG4HvPv8gwoU3kz37p+E3JZnm0e42Kn8tXq45A+3saQg0ms8pN/0Fgo0hfsM2H92mElb/RhuLepfLTy6FKlfX/Ux/e6t5I3y7D/6Pv/dbH1sbw+vN+i3R0eHk6XcNv39tZN/zrd2Mn1Hw==);lineShape=1;" vertex="1" parent="1">
                    <mxGeometry x="87.38047422034765" y="262.4597390419485" width="63.5467265847368" height="68.24900201498383" as="geometry"/>
                </mxCell>
                <mxCell id="14" value="" style="shape=stencil(rVZBbhsxDHzNXgeSKJHSOU3/ESBObdS1A8dpm9+H24U2pmKzKNCbvOZI5HCG0kR3L9uH582Uwsv5dPy++bV7PG8n+jKltDtsN6fdWVcT3U9093Q8bb6djq+Hx+X388McOa9+HH/OO/xecBWSZ1AKb8uHQmD68+XrEr/fHS7iU0MRAyBGbLcBovtFA0iI0YnXA4qJDwjhdnwtYB7ixdm/RaRq4jOiOPEF1TIUNaHkACqqLSAKON8GxLBWuFLESA6itZ7y2oSM5uXEyDannCDsALRJyQIqWnHawL3GVUipE3cdEEYhlezyKhmFxxPIqYEbEo01BKcGLoi2hhxRHDOwkmhZIkJ2zKCAISVVn9cHpi7mVUwqDUeuLAgWoHL07Bkh1g5agWdP6Yx82I2c/avaf7RzdAquav/BCxCnBS0jWxmJKzt1ZxjsrNbxnNBQh5YRyMuogQdzJoTqAGSceDkgOZw2GmWXpdv1Oqn1k3Vir+r/ADKjNSs71YWjo1QgFqAzqnqAiGb7ME9B52LQqTuccDForyPWq+/iiOxpA2y9M7fSqYHHsa3q9cxMncKV1OaOeb3arJBq7kq5Gq9WtPVKdb3w6Z6S1Nt+I75afnQ6RcecanW7P+t0cvgpILt/Efcu/9fHzt/jdfHxsnra7ffLw+zy//Elpp+WVxzdvwM=);lineShape=1;" vertex="1" parent="1">
                    <mxGeometry x="135.197376433841" y="330.4817998798301" width="11.77850271648515" height="8.236154394704386" as="geometry"/>
                </mxCell>
                <mxCell id="15" value="" style="shape=stencil(lVjbchoxDP0aXjW2ZVvyc5r+R2ZCClMKGUJvf19tiQFr2dPmbWF1bEs6R5J3xQ9vm6fX9SqFt9Px8HX9c/t82qz40yql7X6zPm5P9rTixxU/vByO6y/Hw/f98/n369NkOT19O/yYVvh1xtVMrBMqhd/v/1Auf//4fLbfbfc39oUp18Fe+gJ37XMklsE+RgoAwIVyGgF2xLYMSI0kjIBGSQCAqbQBYD5HXgZEpTT6zJkkAwBTG53OmTLaIZDwACiZSlwGKNXRvuINhGQ8kFgQAlo/5cFeY8/7kgMuRCowCdFOFAdAi6QgpmyvHSBRRswL1LLfoYEYFUvC6EMLpABQA+WRSNoogiPVRiX5KEWQZqk+b5qh08rEs8RVRKTWD3BhhokBFACLCY8+SIHquUb9AjAfQKYbk6gHRAQoVKsHIPI18UXPAAqi1HSmn9L5ex/QqIoPqyI9hEBhLGOiFJETzStIGuSGOaGOG4EqSrX09W7IVNCRyoyuCXPDCmXwgASKvWk+ZA8ICdI1R+8DA6cnQYiPEgTorCM26LQB2AlCSIEPBlAnuUoFCMJ80BldoeQsJjMFVZy49yJxKznQUIwaLnGTqBFbq2erAQqihs58KHA0MQFl9mFFTc4Aze0gvW8vAdTVmUYBKc6Y4zqKNVbsw8cAE71do77Q8T4g9hpx00YZcEkSqWujRg3gdGVPDcs9YmtJvi61y4S2NITKGKWGS6UNG9lNrdf6fH+onCGmFgBEHZMvTFZuFexgTS74sAY0kvmR0hKNikbwip4yD4gx71fcqbVgr25kZaporu9vLyMxQ94VPxLn1Oe5+9Lx8eQE17driI4AOyKaoSdKjGXblkB3K5u61Ym5X57us7T6CQBfGuwSImOKrXcCe9MZj/YBjuiWUA7OHmnmemf5T/vS3bvao55T69y+AEZU8cMzvqqavbvmRdgOqvq7cIL9xuyLo2i/li2uP+Yrw9loOr+3F1SoLT5jPAu8mVv8XU0s1ADfLL/OvsIx/qPfLv5tbw/XDyUv293u/J3l9r3/sGJ/nT/K8OMf);lineShape=1;" vertex="1" parent="1">
                    <mxGeometry x="173.21222690686352" y="300.57401897006287" width="35.881401337632155" height="51.430881588642364" as="geometry"/>
                </mxCell>
                <mxCell id="16" value="" style="shape=stencil(lZdLctswDIZPoy2GBEgQXKfpPTITp/bUtTOO08ftC9WlIkISPNkpMj6BPx4EMtDD2/7pdTdgeLtezt93vw7P1/1AXwbEw2m/uxyu+jTQ40APL+fL7tvl/H56vv39+jRajk8/zj/HL/y+cUQgZaQw/Pn/BpL8e/H1Zn88nGb2KQNSZx8rhLINZIJYOwArlLQNcADuPaQAJTtAgdJLyAihbgMlNYkNYGyfWAUkguQOKAjJ0SAC0osWBI7bQK2QetE1QXY8KFB7DzVDJQfQI8UeKIBOlCpDCD0gkDxAo8Q9UIEcQBgELVCDm4cUF4CTuMKAwQLseCgRClrR4iSONSZsw8qOaOZWzBPAQI6GETAekitaj5RNlAjYaSAVLSZK6BafhpUMENshtxKX0QJ3SqOSBZIjWn+ubIF6p7zFivaKbyyEbPMQHSCGsOig3Kpl8xYwADen60BpJ5iVa0QHIKBFj0bn2tCbLBcLFGdACAH2qZ7FYb2aCogsXHhdTQvVKsJr0ukemoXJmxA6UiItEuHE9dNAFnszaeCqE9esLdRnTsMgjoaUQFIHcHLzQHqkPg86u70mpdBacprUCNEpV8R2+U7LRmw+11soWQ/o7wLBlncGcgpj0aAJ0P262UyoJXFdru2E6cV6woD78McmZr0L7LQNjV8PpdaPGHvvNDG3heXD3queOG11M3tnhmjsiv0+OedRvWbmBPdq1OI09lMA1u115PXJRXcR/uzifN9eHz629JfD8Xhb8ue/261eX93+I6DHvw==);lineShape=1;" vertex="1" parent="1">
                    <mxGeometry x="216.00803884447623" y="302.68234112680784" width="10.39104160845443" height="40.301645119904606" as="geometry"/>
                </mxCell>
                <mxCell id="17" value="" style="shape=stencil(rVjZbttADPwavxK7yz2f0/Q/AsRpjKZx4KTX33dUV6pJSxMU6JsPjZbHcEjuTm9eH+9e9rsUXt9Ox8/774f7t8edftildHh+3J8Ob/i009ud3jwcT/tPp+PX5/vz95e76cnp05fjt+kNP8641qW1CZXCz/MvqUgav3/5eAY8HZ4vASqtW0AU1W1AzTKyAcQmo20DSpUcPaCUbUAuMoYFdFEC0CuTUpjDsApATGKygOUVq4DJAGuSBhrWqFLsCTlKJmGNUbr1oQDATEqi9oSqEtgJRYLNdEvSKolSkK4WUKUHkockMVgAyEdMUrDV+tCiRE6Nark00ZGRL83vW8LaJBAf8LfjUm40ShV5sCYpr4eKPFgupS6FVVyTZMMas3RW09EXUBMlVGrDsxsHVBKkniTZIKEceicAlWplKQcZkQBAHEvWqRwIM3qdQ7IwI1LujSDBMgPsZgU3smTrA8IQiEmjSroCFBKl0aRXC9A5k+uA4amEMETmw/Al3TstaQAclUaUyk0q1gfE7Y8UrgP6HJMFUGXwKEUbVryiEy6NItmZtIRhHQC2qgcMBogz+y8AgUUp+IqDV5lEqQ+vMvAqEJVBXptzGkLFanohwkKNRRa2TMpWvEG+SpQSTjtq9ExPgMWe3olnWq8KKPE8oJ90D2BRQprU1bTSvg5uNldxRZRFaUi12tob1dYYwtzRllSHua9uHeGGxInxLK5dhiMTtI2d0Hxc8YrEirp6NZ6EhGUu+xZ0EYf/hOiQOmsUiqSwRtolusYL8SMnoOVUmzpMB4VkAu8bbp4ptFVjvndqmTOdjTE8NGsSxmvGvxZ8542QV9IX2+LixY4S2Qkose5NoiMWDHBOL0vI1lLTrEmlU+HA38lWBM4MhBol+BYBsrCwZkjdlbwOvgUl17W4WiLq2dVcoYtZrN4k1FRjRSrNVhyEiY73PgtQYyZkcfbvotwS8Tj4obJyLb4SVuwCbPhRv2HpOz3X73yoHKaSWJyDW6UDnWQw+Ec3Rs/9a90B9c/rvHusPz+uVpN50N/a39zSGuhwiKHfRZQrdr3afAItY4hddrsYbYSoWVcybTZwa+9R+zz2fGVzXp43tQWQ+BQG6bRVH5VWPQDVyXWZg7AFGDYHoCG7IVoBDLqKAeBaDmhEh9vit/rErzKmsFq5htawljMlzl2LlVnxN1fi6gHsSqlfUTtV3gWH77PTCazP/vNd4PsAfPh79fhweHo631xe/u+vKvHT+ZpTb38B);lineShape=1;" vertex="1" parent="1">
                    <mxGeometry x="245.78669928917714" y="324.91113065167053" width="44.273936965249504" height="27.861304362061787" as="geometry"/>
                </mxCell>
                <mxCell id="18" value="" style="shape=stencil(lVjLctswDPwaXzEkwRfOafofmYlTe+raGcd9/X2hasiKkLVT3xSZSxHALrDMjp8+Di/v+11wH7fr5ev+5/H1dtjxp10Ix/Nhfz3e9GnHzzt+ertc91+ul+/n1/nv95dp5fT07fJj2uHXjBNPzk+o4H7Pb7ynVP6++TwDTsfzAlASBbYAcduAzOTjCGByeRuQArkwAiLVsA2InooBFAp1GxASlTGGEFtU9wGOogwA1iyhL2iIZQRUKiBodpTyAIiZPEhrdFTHIyVPERROfy5uBGQKIK1auDR+IWtlEqBGJD/GkIU8SGv1VEdAKcQRA+oAqEJOQAzZplUyCcqSIxnZKkIMYmAmHr/gnSMHKueD5YZ+IngQNfk0rq8UwZFULWkVM9g/UBpbgOgOYH9PPBZBAkUUcGsoi6JVIJ7eHvr6QgkQNVli1wTF2bPd16v6gTa1X4Wxv1SmDFin7YdXAAHK0RQZSuiRBHxBa+xGbdZMBdU4N+l2QG1M3wIUwyIPWacAb2ikQSNAtGlVnnqgTc1SMEcqJIAYWoc09nlVGpQmU1yrHwCEoolZ2zxqL7bhaQQR1JlbQvp6TG1PeVUDNNi8bV7iMI0aBRYsCiDe2HZb0BSVuLTmvNBBRhVeTRBVWkHSTCR1BQAnmgDlEYAOhCA2BjSYddBHZwEOFC0J5dWREIt09Mt4JHVxCXS8yG0Md4CDLZKDJVJOWGnSeNzdSCUGzMvNZHZ/VKFVCDapUccuUE6f2d2wJegsXLNz3UIWaIOTHTrTDkjJ3KzT0gUjaa59toMRTwGO/Ve1CSKO2k3H9qusA/tnNc3GGVEG69U+mpKpJwYV1lZlmiP2XZNLiWa9BwlVF5QfOk+208bDW4iOCjMwQ+sc99dLk+Ai/3i9lQy2dW6lgQyHh37AEKK0jG0FbC4UtXXv++uLvU8IdFE6G3mlADQMpuE4BqDzBDWVh2/L/wHQh3+X87fj6TTf7Ze/28u8vpr/EcDPfwA=);lineShape=1;" vertex="1" parent="1">
                    <mxGeometry x="296.0370676030416" y="323.418573949471" width="22.781475668351504" height="37.10918644452465" as="geometry"/>
                </mxCell>
                <mxCell id="19" value="" style="shape=stencil(rVjLbttADPwaX4nlcp/nNP2PAHFqo24cOO7r78utKlWk7TEK9CbLHIkcckiuNvLwvnt6225ieD+fjp+33/fP591GPmxi3L/utqf9Wa828riRh5fjafvpdPz6+jz9fnsaluPqy/HbeMKPCdcL1TZQMfyc7jBTjr/vfJwAh/3rGhApBAvI1OU2oFWq2QCiECNAotYNQJgKAgilagGdOsM35GIAqVFIANA8SzlTDJAlF3QJFDsAaB6sS6USgzxwCD4RNVNFPnVqNgglrlXoU4wG0JkCSkSnyhagNBUAYEruDXVOzVVAZRKxAE0NyJzSniyvSkPOtwGpU7DFtGL6KkIqpexfgcovaq7FAxJ4A6uE6kXUIBGq4T/lvOIViVQjtIlTiUiD9pbVpgUPqjV4hWrmGZQez+paarvPTeE6pcTN2weQAiGx8dYGW0zy/telI1y1z5TF+5NQmc5sL/wEqINCPXv+UbzaS5y9UIH+dNuCmwoZxFu8ytrSz27wUyw/OiU6qB9t2M4fzRdQscxsr+wbsI8kwdtnJLAL+wp7b/D1oPwk4I/qy9VDuqdf549QBPpahtFKjwXad9untT5RPTC1i/qPkP/u7BvkM1Ho3h75n4m79wf1nzJvKKt4GfhfqAXPZwb+14vnyxzRf7HXAeAmxhAAWiear7iOIx4hsweglqhj0o/uQAXEkNpFk9C5ipLcqRQfdAKqqZeyKXA1HVOl+DwwiGGw7gZHn2m4Dsh+Ele8j49Baku7FCjNqrVkYxi8IYA2XxtDZuqouIWy7b4pUsZvqLa96MaP1g9VO1uWtEMJcGkcESyAAxyY2s+jLb4M8zaORZZVbZlgAHbxeQ7zSnLdPvmNDi+lunhz8PZAzrrrc3T2CZ0NqveH58PCLXvXISM8GeiCK+5MBwfyWIgtnwnz37w/ywpzy77YeOu957v6Ud0j/isVd6zGG+C/H9zvA/Ti73eCl/3hMH1mWP/vvyvorembhDz+Ag==);lineShape=1;" vertex="1" parent="1">
                    <mxGeometry x="293.8236676408858" y="331.1300268320649" width="50.68017928305255" height="35.46677974289287" as="geometry"/>
                </mxCell>
                <mxCell id="20" value="" style="shape=stencil(7VrLchw3EPuavbL4fpwd5z9cZTlSRZFcsvL6+4DZkFqCM1D5loNv0i6xJJvdaIAzl/Dh2/2nr3cXb7+9vjz/evfnw+fX+0v46eL9w9P93cvDK/66hI+X8OHL88vdLy/Pvz99vv7/9VMf2f/67fmP/gt/XXExmuY7ytu///vEmmj//eTnK+Dx4ekWUIxfASGYGAWgGd8WgI/GFQGoJqwzuDJ+4hgQTHYrIJjizwEBS7IrwBvnBCAaSwBnogB47GEDFBFW700uvIcQzgGISaQZsvFJAALvweOkxQzNZBqfTBHji8lpTQxnmlhQNmndMY7Fit/Pxq55FLMpIo8QjrCMT9Fkkah57G6Mz378wsl+07rf3EZpHI6vJtdlfEnGZ3FgztR1QdWbpADYQV4BiFkVSRdHik1A1YBqmmWAqgNwQ84McCKooZpESyomKLYIxqVt0+8QGC0pmCY2newgkwlwxotNJywgriftTRSVkOpg0JlKaRzlcaq6USkzt0EHqhaCSUTzYCg1Q+Lk69UpwpqLaSsJg0BUWFEtaa0HcKATMxRrGlEkFik2jaiXdQZnTRIMUAL3tibPDeMrlYMs0BJNWscjaIphEqcqOEc0woLESzxeBSib6ml8VesvW3Hq+Mxaf4tnEIWD8WmleBxYEDkEQKUTdqNrnQEazeAHpZ0CSFtEWfwA5LWWkaUqSNWOrJ914KR6QRcgegHLWjVD5GNALWexBzAoFT9arZIKtY28mXwUJM03z7WcmnEitVsaWmJSZByK6RhQWV50whHF76xlgVR0+WAKv06BTlLFFC2MKN42N1FwaJaemluV+Y3cYEZqUhVii9YxIKmCcKOEbwFKtiV2GO8BrMmNAUoCpHQQJSfCCiFIlqQWaXrS1j5RIsrDAGAJECV1J88V1I9S5FKfYWUBqBKrZgisV4s+h7SpwzKd2dk5UGoU3a8glEJhgJKTaX59A6gKsHlJ7KGosDYmgTd+PgOExudQlNhrLPbqzK4zgCNAksYEm04EyKOkzsJK1gT1IPeQ2a3WaXjPUiNvxkF5+hRZCvQlqZMOY8W3m1Zh3Y1DGoE+LVGKUpBdEYC2lWhWvATLT0uyg0fOosSCr8quCEDbKk6Z6O5ltop7p0TtNoMSG98NQH8ojTetarp7mcwAxa3oca5uYdXCu1gGBCXJ/DZDkZcryH66zShTpJ1pDUo+ALJYUnOb/PFaVpZNkmW96ciOD9SmDFz32St7o6TkFVRlXxzTaJNnDiusSwpZ+4HAlgmeRimB7inJouDglCL74Vp/uNb/vWsthdut0/SCrHArzXvMoI4t8AU3bG5QeeRYTUYvwwpDSCQMelEHB36jyulXxGqGOEztTFVnomjoed4s3oj0qoTVdusO2aP8W7cB66ZB/PKBzyY/W5TNMMbhaScAnCpOOrSNwKpkPCQCqZjWpITud++UrW9u/xgRxn3qzRRKErvKkhibUMqqVyTtusheBVYhwdqivDPJQzDP8XaIueOD4wpFw1b14zlEYBGvNrD5SSetlWUbk4P8fcsPiKB2lbzY7nsgFpRj2O4loBVUY/DMR2hU6gEX+JBYvspLfWdZm/eHjIK/OqcTf0nhjBOLayVPz3Q8vvBVj5WdOURWX7ooo+WnSVZ2hH5rSc8ktOl0fKGXhtQ4NalrRjurjXbmgGJF0tXGkZHzBLx+WOUH1U7AfO54DLBMjb0KlA223NNilo+20UBIH8X56PQYsOkjfKKcef/aMUC1WSyAqKgD1B62h9UAWJHaCCLvocjLAgDojYE+p9p0ZFcbtWSLke9gohaF+JofGvqhK09noLA6aeW//+2T9wH44+1lly8Pj4/Xd2Vuv+eXY/DR9cWa8PEf);lineShape=1;" vertex="1" parent="1">
                    <mxGeometry x="345.79080664732396" y="332.4239626385664" width="65.79413283781844" height="39.58795010713436" as="geometry"/>
                </mxCell>
                <mxCell id="21" value="" style="shape=stencil(lVlJchsxDHyNriiCK3h2kn+4ynKsimO5ZGf7fcCoOBmCmpZ104IegkADaHJ24e7t6f51v/Pu7f10/Lb/dXh4f9qFTzvvDy9P+9PhXT/twudduHs8nvZfT8cfLw/n76/3zbJ9+n782Z7w+4wrQrE2lHd/zr8E8uXfD1/O9s+Hl7W9J87W3m/b50hi7YNs26dKiQf72Be8bO+pxsE+UUrb9jFRlsFeyNVt+1Ds85kpRwBwFAwgE4MVNCDRDQCvK4AtcKHgR4A66QDAk09jDiIV3gZIT+mSA6YSQBIojDuIQgKeHyiHMWeJIthxIB5DmpkE+BP67hZ7DRAgdSIug33RJ6AiID8+v9Tu4UX7SjL6L4EqynAgNxaNKEsRIFuWVqYAAI1iY9lXdQmxtPTnLYBEAmKkFPNjUGsmASyNnuLIulrIgagm7p1kvQKgRXaUnAV44FKuFIPdNAprKZZ5Nfbqvlxp2h6TzUMA/a46ymYPWt0gcc0BEyWGm9a/TQeWCgGSbDlIoQRmgrB1STLseBrWaOpByQdW0PpNyQLQGNFMi9lDpIzmWiYXLIBBz9PBVs0etMmAsCrAiQWgsCahwBbAaIXSu/oC8D0zWwAzqjSVaJCkqWuIIwFsVUCqFgD3sIzvVS+OOEom0yqBKhpulXK2gAw6X2sztwHYdr4rLmUVYWHaNAbkOIUVJE4BIhaANEYDGC4pNVABeSs8r5BPo1RvorcCeBq7Cc8Hf2uJhmIBGdWDTH0Jy+20KLtVlKBLZeqtGjdc02FKHGOX7AoOjqx5D8rWjCpuipICHHJpyoMWECTflOlWokBr3A7IVvPpHjygRnG9R6wABYS1xE7mdR6AS83jKdMO5EEu1bQAl9oYn2oaCWlVM+Yo0yoOKAEVbLamE1WQaXaOnKkggX2m1i4tVgoLAtKkQyMFJMnYnq/0EeiIKGkS31i4aqrZ6NDSCbylf8rI76qHQNwri3GpYv2jQ65YAOKGngcMN1a5vHzkUO7UW5bweUqE9g1QQly7elklIoO4crR6puIJwUsvXanvgsZiP7atCsKDLcT+76proN7qLZO070SwARU/YzFkgX1vKk8d20h46/NHGqUI7xq8LZ1Y4DE0WS0WHS7m7u1ytxLghZIywhzVdUl0OaFHdSPrlYURZNiLDREHeH0Tsi1NgZIhTkfKhEWMcmjMgYd3dO3kM3ICz6kcbfNyPWQfvMN0/b5lq5saqYr7UFPvbO3R8bbaTufgOGjyqRh7VJJlOno6fP3nbHwYxkftzVUPQ4Jeskf3NrM/Ht45z/v1vSI+GE8PZc6cL1zyMx8CnK1FbH1duZO/eoevH/6/AHg8PD+f3x+s/7cvDPSn88uG8Pkv);lineShape=1;" vertex="1" parent="1">
                    <mxGeometry x="133.51669992336576" y="373.02378698523216" width="79.76428431682587" height="87.43592478331595" as="geometry"/>
                </mxCell>
                <mxCell id="22" value="" style="shape=stencil(lVbZbttADPwavRK75F58TtP/CBCnNurageO0zd+HqiDbXFlT5E3Szmh5DI9BHt62T6+bgcPb+XT8ufmzez5vB/k2MO8O281pd7anQR4HeXg5njY/Tsf3w/P0/vo0IsenX8ff4x/+TjyhoiOJw8f0oTGl9u/L9wm/3x1u8ByIiyMUJc3rBGkk2RFyoiLrBDuuyRFEqek6oWQKzRG4QpNqIhHvNAVwQS3EHm8mFoBXYu8yUwQeN6HgYxooAXtaJa4dPoR1vEZKqcNXBvhMMXX2Z+CvWri9/ZkkAbzOArjGv1aI7/4fsUi1kbInFJhhLVSiJ+ic8/sEIfZ1w5Ey0FxTkuAJTA0koZmqc0/QCAiBdGFSA7Kodbb4xukCTKqLQrOwZpCHKtS6G0zq6AYh9TfoHOc1i1KvPOhyWyobxjRS9UoNGG/X95UckIzCLMsrXoCKTHZdji3F6P+19/fS+tYqjX3hVJjgGC6d52JQJMa1n7pKS6TYpK8RLAfJxyhFCsCkajH0orMR1ADBjrv+Xi7VfX8GmsU+DS3NpXQ/rkrR68gyKYhQSH0erAdWRFjMwLErgyZsec1d8Qc8dtoszZsbKghr6bU3tnFQbNI3eYsRGlPcT1mbc2iMh34PsepDi0uYVXbBWymAFCxKp7W5Xa7g+6lZ4BRcyNpEJ6D5fnUV/D/eHq5758tuv5/W1tvzfk+1T9OOK4+f);lineShape=1;" vertex="1" parent="1">
                    <mxGeometry x="195.62686201889653" y="450.619187873034" width="18.902227965651036" height="21.56310132167573" as="geometry"/>
                </mxCell>
                <mxCell id="23" value="" style="shape=stencil(lVjZUlsxDP2avGpsyeszpf/BDKFkSgkDdPv76jY4ieTLCbyFi46t7WjxRq5e7m+ethsOL6/P++/b37vb1/uNfNkw7x7vt8+7V/21keuNXN3tn7ffnvc/H28Pfz/dLJLLrx/7X8sJfw64KJTSguLw9+1LoVj/f/l6ADzsHi2AmwFwoiwQENgARChnfEM0gBQuqST2hlSp4RtKNYCcqXYASBSt0UVtiACQKYgB1EAVean4G2olDgBQqQQDaDysWgVwpJAtoFMGN3DzgB5JgA0aJp5vAF5KjZoNXKuUgA1Z4+qMTlTADaVQLhYQqAEbqgbOJl8tI5SrgBZHMp9FuoBcaoWSy6VEFdjQGlVL0dxgpBXQrA2ZSRCgUrA3pAzj0GScd+R0IwZG10Zib5BICcVBNbaBY1UJZGvJVBwgQALlya1K2l4AIFK3RkemCm5QPoiNdCcGNgv7zFAVGyAoU7RsiIESqkqRojNZqIGwdV/FtBCi0l2ospdHqZ0oFS8v4PzJQap/ZmAwBecghmmqfSZ7hzagf5gq5Ghd74i/FYZjqaCC4uu1L5DFGkrrzAyTQcuaFU/UURXyuaziqJ8Fys1rg1oyD2VPxiYUWRnUO/myovM1sax8h5mwdPw5FRBgmovisYS9R8bqkl+TGcS3T/JpxGS9hFLqXh6RMVOc5BG5ZKo+moEJkTGJd1AF8sF3APWYAH2Cp0u/dLw1t+Ehc8xKp/yskIzOmRlS/ZPi8zwaIRuX860vw6ik6+qIL8xH567XcZ3CXGxhn9BWmmyjwCuB9mo3xhXch4qf4pZ6BHK/6v0u+TOcT3SM7BagJiO664xVbEFZEg7kZ5fJR3hJ6dU3AA1LhDV6oowOimiX632KQxhj1zqg+KpY2kitdUAYK8axrmc4ZC1bj3WTfok41GyHIA0Nqlu66jmVOsNelsXvQV0nS3BDEj/X9AazTxIFx/+AGRqbZ7RegazuY006MzojL01hEDg65WltqoNR74yKjj41EoNEEupWHw0jWvzEzx8Z7308doWzN4cOuhOPF4kPPmqIH70vvJrwWBU++Cwz0ebCuw+PdndWIBl2NMcy7VmINBqvabTHq0PPXh7Rvoz/nk0faE2vft6NDFtmGw37g/J90h/rs+xu07iFDNbzfI3AHlWAe425ELKVkRfnxPpj46cBJkv1x+lt82738HB4Gj3/v38L1U+Hd1S5/gc=);lineShape=1;" vertex="1" parent="1">
                    <mxGeometry x="239.9980026229092" y="430.1769909733795" width="34.73401873439309" height="50.49069789003045" as="geometry"/>
                </mxCell>
                <mxCell id="24" value="" style="shape=stencil(7VlJUhxBDHzNXCtqX87Y/gcRgJkwBgLw9ntne1DRpepOIMJHbkMjdZW2VEp9CGeP1+f3lwdvH58e7r5d/jpePF0fwqeD98fb68uH4xN+HcLnQzi7unu4/Ppw9+P24vT3/fkiufz6fvdzecPvk15MpvhFy9s/z0+Ma/8efDnJ3xxv1/LetDjIO2dKJgrW1DYqVNPsvkKoJpVBwWfTyAkhGzueEJKplSgEk9NoczKRXckZP56QkrFuX8E34/KgkINpTKGYGAaF4kxMRAEmjieUYgIx2uMCdVCojsYBCmn0UvXit20FpMaYSjUYz67kjQtaoRSigDgohSix31awxmet4InRrulIQ8F5olBNKNqGGolCMSlrBRY4lyVMqzgwL0FB5RIUbKAKTtnQHb2roFLDmkDiAAXlpdKkyve8lMdcKsFYAgJLaownZJzJ0ruIT3pNV5reIZo4npCsycRLC1SOFRdhA7lS8sa7EciypOOmQna64oBUlthQnM4lXyWUmwpIBBU4+K2SwFXEdXRrQA2SAmpoQKOXgN7MrQ3YGrVbGXo7a8XtPXIdebaPqLpBwNOsK8KIoPC+0Z4FN2UF31USeFvB645S0bPICaVjryg0Jwm8nUzA+zH7YFUjSJaAW6OX4LdCQo04qcghlo2VHNrBGLhVLPfaouoQOMIydK2TQuFQ5qUvr9xkiZuKtIMujzInRnc6tQp0JoG2gos9kxA2YoDV9KpE8fLOfdJ4f2RWZlRG8KHL4wmxN0rxruQjuX+3biXPWknRsL10EpIRqP1JvpH3N7ntyv+O5EMzVXU29GtyHyCF8n+hBKPKbVet1lL/qHhVSzttFthZyWc2MWj+D3lGhYEqfno/q+CJdVpaj5hHwuQfKu8mol1JvUzNZokvfb9C0SV/iH/QiUZcX/KTvN8LnL2RSQWZndb1ReTTVF+QJ/4pk388ZxQmOH3/TOvLz/jGmr2Q6VW8GFtuGp8LbxjvlXdWs0CQMAagbur0FdSXZYTV5KNZylZQ84reoIcVPmErUteClOkeV1aDWouUoiU3XSlQipatZrIwmrkVDM4m7VY2MCNvNBLxGR6DX1SpneiwWatOjVxkxtjOPaeLLXe42VbwepcCqkyrzUmxr3YprPzhxDhtaxhfqZ16d4VAAwd8UB0WCowhZLD3oK/EICNlvRqJYFUkDrHqTUcsFITxvjgWUIpCz/emUzvShOylQnZXVGrGwehGkm8hXhPRdHyB9D82TgzIPjZOzzZ8bJzetHHig2CdwLiwdedMJC21YZ6MUKKVTVJRV1x6hepNO60YJR33QMCq5UuUGtzdhI8nLPyPj/BqXEA6skVH6F7vfZo6aflcMMrz8RrybbSgD7jb8tN8Z+UFe8jtrZJnDopOx8zS8TFO8w7fiIBZVf1+tiKMQaa5F3kGqXFai74yDvam8eJ/z+xNel/h6PgIebVv4V8tFnlFLwTM9uTf98HsVXn8ePk6d3W8uTl93Fv/X3/Nw6PTl8Dw+S8=);lineShape=1;" vertex="1" parent="1">
                    <mxGeometry x="287.9734995076782" y="443.3445257327777" width="44.38572841901794" height="51.73975157809741" as="geometry"/>
                </mxCell>
                <mxCell id="25" value="" style="shape=stencil(fZbdcgIhDIWfZm8zQAg/17Z9j85U606tdqz9e/tmZ0c0uJ47xP0I5JwEBl59bp8/1kNwn6fj4W39M76ctgM/DCGM++36OJ50NPDjwKvN4bh+PR6+9i/z74/n6ctp9H74nlb4nbmSKZeJCu5vngmZ6jzzNAO7cX8FVKEsBuBKrgKg9oAE8gkCbLeUhEoEQKSUDZDLeWYRKIl8MEDRmHwfyBrBG6Amyu4+kDxxMoB3jhwgYu7TVAsVkFcWCs4CTBEoF4RctKeOxHIf8IXYpikHikAIf+MNUW94AGSSaoAoFIE3AlOyeWU+p2E5S9yfQZcQILVuQOwZdJNoS9Ls3wA5u2XZTIHECqeJ9kDpSaauRiNVcAY1QhdBzeLBli5WazpkSsBLV25uRaqWRyFawTQzRRIQYirJzq5atkBqLfouwqUxLBepthWb10vrWZY6UOAeyKCCtDV625mm9gmUC4Wc3VLJMMIE1BsA2FW9JraVlQB7n3c9oMKhCLEvIM1zBPZ25/umNQ1tVEC2G+fFCC8g398O2hNQuQlVu752DBfA+q0ptnqO5JFmeuIuo9DY7KjY71UxdJV4EntifPWorW++R/dC4t7V3DlIB5cHx2bc7eb3yvX//QNFp+bHDT/+Aw==);lineShape=1;" vertex="1" parent="1">
                    <mxGeometry x="350.65438357196786" y="461.2190548291246" width="4.672539772115556" height="4.665236216357698" as="geometry"/>
                </mxCell>
                <mxCell id="26" value="" style="shape=stencil(lVfZctswDPwavWJ4gcdzmv5HZuLUnrp2xnF6/H2hamgLkLWu3xwFS4IAdrkc4tPH9uV9MwT3cT4dv29+7V7P2yF+GULYHbab0+4sv4b4PMSnt+Np8+10/Dy8Tn+/v4yR468fx5/jCr8nXGvU3IgK7s/0pVBs/z58neL3u8M8vpIrKt5XahkAmDgqQJAlPAB4Yp1RLJTCOqBm8jqllKmldUBpVKsCcKaMAIGKV4Ase9Z1QE5U9A6FyfM6gAu5pAA1wLIm6VvTgEYJ7JCiLWtLxKDTY9X1GaT33q0DQqakO+2dIwcQPvcFL1tIlmA2vKdqTi1ZAkCloFMaew8yStRM3wIldALbhYzjHXmdDzvKYLalfjo+yYng+qwHNTFVMEZ+ER9hvAylySdAuUiUzfq+f7lNnL7af8aLlNRH8mmWBHfO690CcKegjpoRI9wxAVgxwiMhgBA0IPQlVs7sso4XdYpA7Yi1FDF3VtzWrs6omZoy5JiZaYkPIJ/QGT7LJyCRIG/qI6IClFHqqWeO/R0OOzMSDV5oi/XleoINtvmnRKnA+ph4mQeQz6L+wrECOLPor8TzI/Mj+ThQ/2YdhXAyYsYYAiR8uS4plgpW9YcBix6MjgJwxgsFWQHEMjBosi9UNIuLKCO6jcWz6JSqAIByRWd1QowVI0Drbb0AInQU0ibTabmNI5hUIWLV1C8yGkiKFlqXuevx7ftGpMeIIzYUoxU0oyH6DnYotff1YmcrlFMpYtSHls5kwDcxfuYM4qtQWdtSYaAASLxxghGyoQXb50AePRFCv1IvB4B8FpNoFMl153k7PlFlE++A3Zcni3E52Ma2bF2gw/Uv3dpf4+ETqvb2XOvT0PrNGvEIjbvEV6PY8MKZ2foLa3rF1jZYPDLhAN19lMqP64v2bbffTw/i+f/tC1g+Ta/n+PwX);lineShape=1;" vertex="1" parent="1">
                    <mxGeometry x="309.89222879145075" y="488.13206248215624" width="42.002337475584795" height="30.834116122852834" as="geometry"/>
                </mxCell>
                <mxCell id="27" value="" style="shape=stencil(7VxJjhw3EHzNXAmuSfIs2/8QoJE1sKwRRvL2e2d6zOpisCoKAnyQgb7NwmguuUVmkv2Q3nz58Pbz40P0X76+PP/y+MfTu68fHtIPDzE+ffrw+PL0VX96SD8+pDfvn18ef355/u3Tu9ffP7+1kfbTr8+/2yf8+YrrzgcDRf/X6x9KdyH985efXsd/fPq0Gx+Cq20GNFc6ARRXywwQF8s5IHoX+wyIHJBdqhMgV2e/ngLEpXlJOTppBBBdawjImWxaXPMzILlO9hCSywAoY85jgHctzoDmmpwDVEoVT5XJTVyfF6RiEzJelzt/vnjXyRHJOMBtfHW1no/vTmZFrXGI/fiAsgvzgmp2kRyQ6l2ZtaIWl4gpqN75hoDCANUVv8xAlpSSiwn3EMimkwwd2J9SIIDu+jyDtKGJh4AcxplsgDw06xigxjtvWhWjEOtUQAdNFRfYklSVZlMolc8gKGlJrpJTUgC4JD2liyXFeUlVRUnM2ZYEAJUDW1J1YV5Su5ihjX9vgDq069igg4uzxfVAla8Ul2fBde8SkYNGji64JGbTEoYL2m3aEwNSufqEx9qI4BSQQA6q3kQONsMMkO4KW5Ia5CwHuZgh4JI0RHd+SiA4PehGgo/NAAD1xcx3qxxgSUIDqG46QDTZaMEZAFlDcZ4LrsAe8lDHY0BGEqCAyGYoaNMKCCyCytDN/ZKYaqj3Tgjo7Firy205VmJxClh9qzBJL17DVIOdUh08Z6fegc1QcdM1DPd8BqgQ2MvVkoCyqtdg3tuc+7wk80vkWKt3YVYNdZWMa2hUrhFn8ERbqwyD3ACbDR4DGm5a/xIIoHlXQQ5pcINjQBx+bhcUGeNrGU9JjTYQz9fKOJOdtjJJKwDsIXfX2JIKeg1lH8wZKwDYTMrUGeumZbYHY4FshoQGZMSU7SEN+xqAwD2fCg48n3JrJmhN+WZB52GyZ+PBfC4UKSCPTtRj2OfP4yNl0Toe+GG43O/MMjSTIX5ezzMKjM98fAswPrD1p8EEb+NZKFSVA0riBws6VVH8fOa81AZA4bwTPr40OP/IbQxSz0BT4aZxdpZXpDFNxwOh6tzAFm6u6X0mEUoBYDCaHTNOaEx83kEqNPC3hiK2kgfTCWWAUFRplLG1zXHueC0rDPWlIKEBJ5KAoyESAr8pFrGbHrGooossZA89j/CyCTpSy1FAzAgQVpTIozK1ARL1RX2JgX2z1mNAwtKTApj3UkCBPeixEm3tCbm5Apg92JkEBFQuODDQzotbqhpQrDIAE1xApmB7YILz4xD3p8SW5JEImxz4DJB6mqSZanhMDNulxUFc08hFlc9jgq60Utix+uHndtyc+SUDQLFnI9+nxwrpQqCJoQIg+F9kw91jdFaA5zOAu1dXeaEaHQCV1m5UWzMsSa4MCNNn4ZKOSGGshsZsek2fLwAZibAtibtKTG6F23TBsr4dK3OV5aA1QQOKoImaarBjFQwopnxMNQTzPMuG2aYrciVNqlgG09tSU+bJbe/oNaomt6yX4Te6uc89mX73pUwnXBBtCRCeMqyb793FXcawzEYhUGdqcm1pKpnGE+2z8uu6pIs0DDYdhyzP8hJgWFaQZUQ6YKBuvDZpM4Ck2+gPnu4BKrhCyxJt6Wg03jMxOQAg8z7X9nk7AGW6Mmr/uyXRTdelFlNGRndGvnFJlWdwbSScOzmwymHrWGrsFzlfwz10XnUzRQD1jrSorFtE8p34KRWsTarFsaqbyrWuALbphGVrWxLL/CIWb3TTnZso7iFQhmUmCnLwwxeeFicWE2XNLt0DZOumfEyXdIuLPVBJp1H22xsQk0PBJMhMlG16ydjNCfAM/NsARpgEAZFF9qWIUzutulkStHSLIwuKAQNK9dS3GnGFFnwZKcWdS9+59HKsTJe+Sy4NM8hWmD7bA1yGsF7TxabB4iLtyihAwKaFp7sF7UH9ObuFY4IDZyw0PtxrXuPc7jWv77/m1ZYbIPoR7OaBAtAeCm/O1CXdbVfdBKAO0unloLbeC+i8Fp+Hbu6K97StmRCQ5KrDBzYdL/oJASuDdoORHatfiC51fIc9Qd7j+857goFncPee4P+rJ7ilOLfxnvcEoRbTaCvKLpCA/lxUhxrG8dBpOLAO32yR8cKEO4aDlGkmubL/zI3M2D+QSM+JsF/uM1VepevI2ITf2bX4sVA86qyXu6KVZzBqOdAzUVtlWVhbLsg2Hg400QRbUCqQCNu53Y/aAEKvidWlyLArAh8iZK329FFGOAak4Q93a6K36QJWGaxcyq9BQkiwIhqbwSPtvNV0TwHLfW5Wx1AAnKvd4CPq+h/d/WR3Du93P/8F3O9+IuDo7idV74YziOdXOTvqkhRKI6tHmqGuigU5naEv7psVPm7PH/bFTK4amIYFbtNx8caZhlE9dWiy9EY7dqbMsKROQ5CGZXgFYgD2vqEu6TCPWTmPMvhu00wOdg8TeiadvqDKS4ZxUfLNHl2lBlbGcdNCmGqikk5Lq1VtkLHi1LGOYc6TvQLx+Aqk8HtgOSyeL9EmSy5DETbS1+ntT9UlyDRKofFBPw9fFHnapbSXLLPg1AaZm8mC5Lvy7C2nYV+7ut7FMyp4zVY7fc2mVBuWZK0jpksBybc1p9hztor3ua2MwF6nJUyBjLiyp6BbvXY/A3vkKCOn3e+BPXJcnUDgDbvlQZGn7zSXLFSjA0uLI147qJwGLATRHgcRtVhuWihTYW+0lutWdquTPcbF9aj1s2Qm4Xmq42daKnjLNCda6Q0eyyqp0QpjKOhdktAKoyopcMPEm8Qx4cXXxEtVsWI8tycBzJQ9alHaqgPHgIge8vYK82wGIJPmZMkMajhQfiqRVhuiLA0loZK2Y11UtTI5BMwoLaFj3mUpDWtewN6Nm3dZ2Gdn9YzlMpdQMfRRQtqPp94LYoKOZx67ovEYe6bj4zKeFRmXJ+DqjZg3lRGQdgJgDWtZ7rpF2tATvI0hF+QfvZEE/sgKabMSESav5SGaJuds/Q15vI5ndZtv/W6G6/H6w+2LIN4/ffz4+j0S+//jF0fon16/dCL9+Dc=);lineShape=1;" vertex="1" parent="1">
                    <mxGeometry x="355.95291123154493" y="450.3048472810126" width="78.90917957374961" height="60.634865447910784" as="geometry"/>
                </mxCell>
                <mxCell id="28" value="" style="shape=stencil(fVbLcsMwCPwaXxlJSEic+/iPzNRtPE2TTJK+/r64HruBOtxsmZVYlsXq8O683Rz7LoXz5XR47T+Hp8u2w/supWG/7U/DRZ46fOjw7vlw6l9Oh/f90/R+3IyR49Pb4WPc4WvCJQbMIyqF72klRuD6u/I4AXbD/gqQAyQNyBCd+IIQqopfNliNJ4LcTDyF2/GVIej4AuPbrfjGUAxhdA9ggkoKIIybwziGACEoBFZo5BzRgKPmECGyA5CUNYBwLts66wykWVcBoFPWBKxZN2Hl1LUwVK1DS3Ol1xtJhGZ7QnVSwgxZd1LN85mrANGJdUpUAB0OkWeKiw4422MdUCFpHcQewUlJTqhah0TAzgnyGYtuV+HgtCuSNbQseH5uQLqq0WVACYLef+n29UYqEHQjISRH5baku+QTIDsVYmkCDZCMPH8yQzb29L0gADMBpHebNzIKNONnmTqOn1u1nVqFdPEB/A/gVEnMyGjd5s1t0Y2MPRvk6A5u0hxEGXI6qcgA0G6TOUiOPXOBogFXo/bWyDBzUo6ont0yYLQk2GEtbkxoy+RNMREuWB2Ko0OyA0OEbk4rBWs3kv+ts/+/f1XmuQQ38inabSiiqX+bPPzdNp6H3W66rFx/t7cTWZpuNvjwAw==);lineShape=1;" vertex="1" parent="1">
                    <mxGeometry x="425.0695954390428" y="461.2876286501448" width="4.773011212725805" height="4.787434492245097" as="geometry"/>
                </mxCell>
            </root>
        </mxGraphModel>
    </diagram>
</mxfile>